<svg width="540" height="540" viewBox="0 0 540 540" fill="none" xmlns="http://www.w3.org/2000/svg">
<path d="M270 33.75C139.535 33.75 33.75 139.535 33.75 270C33.75 400.465 139.535 506.25 270 506.25C400.465 506.25 506.25 400.465 506.25 270C506.25 139.535 400.465 33.75 270 33.75ZM345.99 273.639L230.818 357.434C230.187 357.887 229.443 358.158 228.667 358.216C227.892 358.275 227.116 358.118 226.423 357.764C225.731 357.41 225.15 356.871 224.744 356.208C224.338 355.546 224.122 354.783 224.121 354.006V186.521C224.119 185.742 224.332 184.978 224.737 184.313C225.143 183.647 225.724 183.107 226.418 182.752C227.111 182.397 227.89 182.241 228.666 182.302C229.443 182.362 230.188 182.636 230.818 183.094L345.99 266.836C346.534 267.221 346.978 267.73 347.285 268.322C347.591 268.914 347.751 269.571 347.751 270.237C347.751 270.904 347.591 271.56 347.285 272.152C346.978 272.744 346.534 273.254 345.99 273.639Z" fill="#E5E5E5" fill-opacity="0.55"/>
</svg>
